<?xml version="1.0" encoding="UTF-8" standalone="no"?>
<!-- Created with Inkscape (http://www.inkscape.org/) -->

<svg
   version="1.1"
   id="svg1"
   width="1328.0948"
   height="1487.0732"
   viewBox="0 0 1328.0948 1487.0733"
   xmlns="http://www.w3.org/2000/svg"
   xmlns:svg="http://www.w3.org/2000/svg">
  <defs
     id="defs1" />
  <g
     id="g1"
     transform="translate(-82.715151,-89.802431)">
    <path
       id="path3"
       style="fill:#ffff;fill-opacity:1"
       d="m 722.60229,1575.0806 -10.10537,-1.795 -7.89463,-2.2839 -7.89464,-2.2838 -8.66666,-3.701 -8.66667,-3.7009 -30,-17.2734 -30,-17.2733 -69.33333,-40.0396 -69.33334,-40.0395 -130,-75.0583 -130,-75.0582 -34.66666,-20.0128 -34.66667,-20.0128 -7.33333,-5.3342 -7.33334,-5.3343 -10.66667,-10.8532 -10.66666,-10.8533 -6.42426,-9.6141 -6.42425,-9.6141 -5.153775,-10.9979 -5.15378,-10.9979 -3.28098,-11.326 -3.28099,-11.326 -1.47056,-12 -1.47056,-12 V 833.63051 530.96381 l 1.47056,-12 1.47056,-12 3.24462,-11.2005 3.24462,-11.2005 4.60986,-9.9775 4.609865,-9.9774 7.62172,-11.4887 7.62172,-11.4887 10.04948,-10.0508 10.04948,-10.0508 8.66667,-6.1108 8.66667,-6.1109 65.33333,-37.68862 65.33333,-37.6886 81.33334,-46.95985 81.33333,-46.95986 112.66667,-65.06704 112.66666,-65.06703 10.66667,-5.07755 10.66667,-5.077538 12,-3.44684 12,-3.44684 14.33333,-1.51251 14.33333,-1.5125 14.33334,1.52808 14.33333,1.52809 10.40411,2.75618 10.4041,2.75618 9.5959,4.243328 9.59589,4.24333 89.33333,51.50763 89.33332,51.50762 156.66673,90.38956 156.6667,90.38958 20.5514,12.1559 20.5514,12.1559 10.024,8.6667 10.0241,8.6666 8.7755,10.8494 8.7756,10.8494 6.3744,12.0898 6.3744,12.0898 3.3377,9.7275 3.3377,9.7275 2.2092,8.6666 2.2092,8.6667 0.4455,311.3333 0.4456,311.33339 -1.4175,10.8749 -1.4176,10.8749 -2.7095,10.4584 -2.7096,10.4584 -7.0402,14.6667 -7.0402,14.6667 -8.2349,10.8915 -8.2348,10.8915 -9.4991,8.7947 -9.4991,8.7947 -8.8166,5.8049 -8.8166,5.8048 -87.3333,50.3736 -87.3334,50.3735 -81.3333,46.9555 -81.33343,46.9555 -90.66665,52.3841 -90.66667,52.3841 -10.44061,4.5664 -10.44062,4.5665 -12.89271,3.3273 -12.89272,3.3272 -18.66667,0.5246 -18.66667,0.5247 z m 46.96217,-81.9086 7.52347,-2.6327 169.1432,-97.6483 169.14327,-97.6484 92.6139,-53.4475 92.614,-53.4476 8.2192,-7.6886 8.2192,-7.6887 4.8033,-9.1407 4.8033,-9.1407 2.0105,-8.5291 2.0105,-8.5292 v -303.99999 -304 l -2.0136,-8.5426 -2.0136,-8.5426 -4.2644,-8.1241 -4.2644,-8.1241 -8.7023,-8.6666 -8.7023,-8.6667 -24.6666,-14.107 -24.6667,-14.107 -87.3333,-50.4178 -87.3334,-50.41778 -112.00003,-64.67198 -112.00002,-64.67197 -34.66666,-20.0221 -34.66667,-20.0221 -8,-3.74875 -8,-3.74875 -10.33333,-1.60475 -10.33334,-1.60476 -10.33333,1.5602 -10.33333,1.5602 -11.33334,5.68397 -11.33333,5.68398 -126,72.83618 -126,72.83619 -46.66667,26.95635 -46.66666,26.95637 -82.39647,47.5356 -82.39647,47.5357 -6.50427,5.6832 -6.50428,5.6833 -5.31668,7.9618 -5.31669,7.9618 -3.1159,9.0216 -3.11591,9.0216 v 309.3334 309.33329 l 3.04595,8.8114 3.04595,8.8114 4.08296,6.522 4.08295,6.5219 4.87109,5.123 4.8711,5.123 5.33333,3.6804 5.33334,3.6804 52,30.0024 52,30.0023 112.66666,65.0499 112.66667,65.0498 81.33333,46.9586 81.33334,46.9586 14,8.0084 14,8.0085 6.66666,2.1044 6.66667,2.1045 3.33333,0.6462 3.33334,0.6463 12,-0.4863 12,-0.4863 z" />
  </g>
</svg>
