<?xml version="1.0" encoding="UTF-8" standalone="no"?>
<!-- Created with Inkscape (http://www.inkscape.org/) -->

<svg
   version="1.1"
   id="svg1"
   width="1164.9921"
   height="1322.0201"
   viewBox="0 0 1164.992 1322.0202"
   xmlns="http://www.w3.org/2000/svg"
   xmlns:svg="http://www.w3.org/2000/svg">
  <defs
     id="defs1" />
  <g
     id="g1"
     transform="translate(-218.43911,-236.36974)"
     style="fill:#49b3ff;fill-opacity:1">
    <path
       d="m 784.50781,1557.5717 c -6.0935,-2.0166 -26.1712,-12.5387 -50.0263,-26.2171 -20.9693,-12.0237 -161.2257,-92.9918 -396.5815,-228.9411 -46.2487,-26.7148 -87.5578,-51.3671 -91.7979,-54.783 -10.0297,-8.0801 -16.993,-17.4011 -22.5062,-30.1263 l -4.4535,-10.2793 -0.3517,-306.97682 -0.3516,-306.97672 2.9165,-8.94264 c 3.528,-10.81731 8.9264,-20.66366 15.5927,-28.43987 7.0117,-8.17916 20.3331,-16.09004 270.0165,-160.34859 187.4856,-108.32283 249.6169,-143.9879 261.7813,-150.26971 18.6449,-9.62835 37.1916,-11.47589 54.138,-5.39297 8.0668,2.89557 58.2748,31.48737 306.32529,174.44214 236.9467,136.55548 224.6312,129.13363 237.0491,142.85587 8.8015,9.72596 13.8185,19.15552 15.8043,29.70487 1.7748,9.42803 1.8473,598.39974 0.076,616.71284 -0.9263,9.576 -2.2161,14.7638 -5.1026,20.5235 -4.8897,9.7569 -17.5267,22.7369 -29.904,30.7157 -19.5339,12.5921 -493.14609,285.3 -518.54259,298.579 -8.1937,4.2842 -9.5912,4.5628 -24.6705,4.9178 -8.7916,0.207 -17.5266,-0.1339 -19.4112,-0.7576 z"
       id="path6"
       style="fill:#49b3ff;fill-opacity:1" />
  </g>
</svg>
