<?xml version="1.0" encoding="UTF-8" standalone="no"?>
<!-- Created with Inkscape (http://www.inkscape.org/) -->

<svg
   version="1.1"
   id="svg1"
   width="1328.0948"
   height="1487.0732"
   viewBox="0 0 1328.0948 1487.0733"
   xmlns="http://www.w3.org/2000/svg"
   xmlns:svg="http://www.w3.org/2000/svg">
  <defs
     id="defs1" />
  <g
     id="g1"
     transform="translate(-82.715164,-89.802427)">
    <path
            fill="#ffffff"
       d="m 722.60229,1575.0806 -10.10537,-1.795 -7.89463,-2.2839 -7.89464,-2.2838 -8.66666,-3.701 -8.66667,-3.7009 -30,-17.2734 -30,-17.2733 -69.33333,-40.0396 -69.33334,-40.0395 -130,-75.0583 -130,-75.0582 -34.66666,-20.0128 -34.66667,-20.0128 -7.33333,-5.3342 -7.33334,-5.3343 -10.66667,-10.8532 -10.66666,-10.8533 -6.42426,-9.6141 -6.42425,-9.6141 -5.153775,-10.9979 -5.15378,-10.9979 -3.28098,-11.326 -3.28099,-11.326 -1.47056,-12 -1.47056,-12 V 833.63051 530.96381 l 1.47056,-12 1.47056,-12 3.24462,-11.2005 3.24462,-11.2005 4.60986,-9.9775 4.609865,-9.9774 7.62172,-11.4887 7.62172,-11.4887 10.04948,-10.0508 10.04948,-10.0508 8.66667,-6.1108 8.66667,-6.1109 65.33333,-37.68862 65.33333,-37.6886 81.33334,-46.95985 81.33333,-46.95986 112.66667,-65.06704 112.66666,-65.06703 10.66667,-5.07755 10.66667,-5.077538 12,-3.44684 12,-3.44684 14.33333,-1.51251 14.33333,-1.5125 14.33334,1.52808 14.33333,1.52809 10.40411,2.75618 10.4041,2.75618 9.5959,4.243328 9.59589,4.24333 89.33333,51.50763 89.33332,51.50762 156.66673,90.38956 156.6667,90.38958 20.5514,12.1559 20.5514,12.1559 10.024,8.6667 10.0241,8.6666 8.7755,10.8494 8.7756,10.8494 6.3744,12.0898 6.3744,12.0898 3.3377,9.7275 3.3377,9.7275 2.2092,8.6666 2.2092,8.6667 0.4455,311.3333 0.4456,311.33339 -1.4175,10.8749 -1.4176,10.8749 -2.7095,10.4584 -2.7096,10.4584 -7.0402,14.6667 -7.0402,14.6667 -8.2349,10.8915 -8.2348,10.8915 -9.4991,8.7947 -9.4991,8.7947 -8.8166,5.8049 -8.8166,5.8048 -87.3333,50.3736 -87.3334,50.3735 -81.3333,46.9555 -81.33343,46.9555 -90.66665,52.3841 -90.66667,52.3841 -10.44061,4.5664 -10.44062,4.5665 -12.89271,3.3273 -12.89272,3.3272 -18.66667,0.5246 -18.66667,0.5247 z m 46.96217,-81.9086 7.52347,-2.6327 169.1432,-97.6483 169.14327,-97.6484 92.6139,-53.4475 92.614,-53.4476 8.2192,-7.6886 8.2192,-7.6887 4.8033,-9.1407 4.8033,-9.1407 2.0105,-8.5291 2.0105,-8.5292 v -303.99999 -304 l -2.0136,-8.5426 -2.0136,-8.5426 -4.2644,-8.1241 -4.2644,-8.1241 -8.7023,-8.6666 -8.7023,-8.6667 -24.6666,-14.107 -24.6667,-14.107 -87.3333,-50.4178 -87.3334,-50.41778 -112.00003,-64.67198 -112.00002,-64.67197 -34.66666,-20.0221 -34.66667,-20.0221 -8,-3.74875 -8,-3.74875 -10.33333,-1.60475 -10.33334,-1.60476 -10.33333,1.5602 -10.33333,1.5602 -11.33334,5.68397 -11.33333,5.68398 -126,72.83618 -126,72.83619 -46.66667,26.95635 -46.66666,26.95637 -82.39647,47.5356 -82.39647,47.5357 -6.50427,5.6832 -6.50428,5.6833 -5.31668,7.9618 -5.31669,7.9618 -3.1159,9.0216 -3.11591,9.0216 v 309.3334 309.33329 l 3.04595,8.8114 3.04595,8.8114 4.08296,6.522 4.08295,6.5219 4.87109,5.123 4.8711,5.123 5.33333,3.6804 5.33334,3.6804 52,30.0024 52,30.0023 112.66666,65.0499 112.66667,65.0498 81.33333,46.9586 81.33334,46.9586 14,8.0084 14,8.0085 6.66666,2.1044 6.66667,2.1045 3.33333,0.6462 3.33334,0.6463 12,-0.4863 12,-0.4863 z m -134.29288,-178.0022 -13.23059,-8.4608 -125.33334,-79.0623 -125.33333,-79.0623 -23.33333,-14.7674 -23.33334,-14.7674 -8.66666,-8.8363 -8.66667,-8.8363 -4.47282,-7.5016 -4.47281,-7.5015 -3.28499,-8.1328 -3.28499,-8.1328 -1.9357,-10.263 -1.9357,-10.2631 0.38352,-221.30919 0.38352,-221.3092 1.71433,-5.3333 1.71433,-5.3334 2.86123,-7.3333 2.86123,-7.3333 4.60746,-8 4.60745,-8 10.8463,-10.6667 10.8463,-10.6667 29.94733,-17.2653 29.94734,-17.2653 32,-18.5834 32,-18.5833 11.27738,-6.4847 11.27738,-6.4846 h 6.19211 6.19211 l 4.49904,3.0319 4.49904,3.0319 2.54384,6.138 2.54385,6.1381 -0.95086,5.0685 -0.95087,5.0686 -4.22818,4.153 -4.22817,4.1531 -60.66667,35.1444 -60.66666,35.1444 -10.17742,6.4924 -10.17741,6.4924 -6.03221,6.4489 -6.0322,6.4489 -2.79674,5.4821 -2.79673,5.482 -1.99365,7.6542 -1.99364,7.6541 0.1329,215.3865 0.13291,215.38659 0.86709,2.9605 0.8671,2.9605 8.66666,-7.4195 8.66667,-7.4196 20,-15.0553 20,-15.0553 15.33333,-9.9468 15.33334,-9.94689 14.49864,-8.3414 14.49864,-8.3415 22.73933,-11.1832 22.73933,-11.1833 20.63684,-8.1624 20.63684,-8.1624 17.45852,-5.6839 17.45852,-5.6839 21.33334,-5.402 21.33333,-5.402 11.33333,-2.1477 11.33334,-2.1477 3,-0.6435 3,-0.6436 v -17.1762 -17.1762 l -5.8299,-15.1317 -5.82989,-15.1317 0.65645,-85.3333 0.65646,-85.3334 10.93548,-64.8708 10.93549,-64.8709 2.19278,-3.3466 2.19277,-3.3466 3.94786,-0.8671 3.94786,-0.8671 4.04612,2.0923 4.04613,2.0924 1.35427,4.9922 1.35427,4.9922 5.63404,34.6667 5.63404,34.6667 1.01921,-4.8901 1.0192,-4.89 11.46712,-75.7766 11.46712,-75.7767 13.20808,-87.6886 13.20808,-87.68865 1.33144,-2.48781 1.33144,-2.48782 2.14609,-0.82353 2.14609,-0.82353 h 3.6843 3.6843 l 2.21894,2.4519 2.21894,2.4519 12.59739,83.88143 12.59739,83.88141 11.4158,75.3333 11.4158,75.3334 1.47772,9.719 1.47772,9.719 0.46184,-0.4618 0.46183,-0.4619 6.0992,-37.2571 6.0992,-37.2572 4.10537,-3.7994 4.10536,-3.7995 4.1591,0.8319 4.1591,0.8318 2.44475,2.4447 2.44475,2.4448 11.05722,65.1895 11.05722,65.1895 0.81712,85.75 0.81712,85.75 -5.98112,15.5799 -5.98113,15.58 v 17.0034 17.0034 h 0.48331 0.48331 l 16.51669,3.3628 16.51669,3.3628 16,4.0432 16,4.0432 15.33333,4.757 15.33334,4.757 15.77098,5.8525 15.771,5.8524 12.8957,5.4647 12.89573,5.4647 20.6666,10.3351 20.6667,10.335 13.3334,7.6681 13.3333,7.6681 17.3333,11.34809 17.3334,11.3481 17.3333,13.1061 17.3333,13.1061 9.5972,8.1108 9.5972,8.1107 0.7883,-4.3816 0.7883,-4.3816 -0.3855,-217.99999 -0.3855,-218 -4.1842,-8.8312 -4.1843,-8.8311 -5.1491,-5.7035 -5.149,-5.7035 -6.6667,-4.9141 -6.6667,-4.9141 -66,-38.2665 -66,-38.2665 -2.95213,-3.3033 -2.952,-3.3034 -1.5792,-5.2709 -1.5792,-5.2708 2.3221,-6.0802 2.322,-6.0801 4.85203,-3.2971 4.8521,-3.297 h 5.7567 5.7567 l 4.2671,2.1871 4.2671,2.1872 66.6667,38.6513 66.6667,38.6513 6.0177,4.3767 6.0176,4.3767 7.3815,7.7848 7.3815,7.7849 4.825,8 4.825,8 2.8374,7.2056 2.8375,7.2056 1.9384,9.2149 1.9384,9.2149 v 218.6357 218.63569 l -2.0375,10.2771 -2.0374,10.2771 -5.9029,12 -5.9028,12 -6.1124,7.709 -6.1124,7.709 -7.614,5.8893 -7.6139,5.8892 -136.6667,86.235 -136.66675,86.235 -22,13.9202 -22,13.9201 -7.04278,-0.5333 -7.04278,-0.5333 -4.63692,-4.4943 -4.63692,-4.4942 -1.22975,-4.4538 -1.22974,-4.4538 0.58539,-11.6054 0.58539,-11.6053 1.33496,-94.6667 1.33495,-94.6667 1.40251,-111.84549 1.4025,-111.8455 6.56006,-16.4432 6.56007,-16.4431 0.0828,-83.132 0.0828,-83.1319 -3.42551,-22.5794 -3.42551,-22.5794 -0.81016,-3.3333 -0.81015,-3.3333 -5.09387,28 -5.09386,28 -0.0601,16.3939 -0.0601,16.3939 -3.27273,3.2728 -3.27273,3.2727 h -4.12115 -4.12121 l -2.99603,-3 -2.99603,-3 -6.21293,-43.3333 -6.21293,-43.3334 -14.11746,-95.3333 -14.11747,-95.3333 -5.7674,-38.6667 -5.7674,-38.66665 -0.72208,2 -0.72208,2 -7.59886,51.99995 -7.59885,52 -8.5426,58 -8.54259,58 -9.31538,63.6779 -9.31537,63.678 v 1.3826 1.3827 l -3.27272,3.2728 -3.27273,3.2727 h -4.12121 -4.12122 l -3.27272,-3.2727 -3.27273,-3.2728 0.0374,-15.7272 0.0374,-15.7273 -4.94324,-28.3164 -4.94324,-28.3163 -0.42521,0.4252 -0.42522,0.4252 -4.13364,25.8911 -4.13365,25.8912 0.60104,83.3333 0.60104,83.3334 6.23737,15.3333 6.23736,15.3333 1.25476,101.3334 1.25475,101.33329 1.35402,98 1.35403,98 0.7689,20 0.76891,20 -3.11794,5.8596 -3.11794,5.8595 -4.61263,2.4738 -4.61264,2.4738 h -5.45687 -5.45687 z m 1.94466,-197.5393 1.50035,-128.00009 0.63955,-20.3333 0.63956,-20.3333 h -1.95613 -1.95614 l -16.35455,3.4529 -16.35456,3.4529 -20,5.7458 -20,5.7459 -17.12738,6.2144 -17.12738,6.2145 -14.05674,6.004 -14.05673,6.004 -19.79961,9.91629 -19.7996,9.9163 -15.01628,8.8738 -15.01628,8.8738 -15.99877,10.7927 -15.99877,10.7927 -12.6679,9.8594 -12.66789,9.8594 -10.33334,8.6823 -10.33333,8.6823 v 0.9582 0.9582 l 84.2227,53.1668 84.22271,53.1667 56.11063,35.4273 56.11063,35.4273 0.83745,-10.7606 0.83745,-10.7606 z m 339.49143,75.5853 106.66673,-67.3089 28.3333,-17.9283 28.3334,-17.9283 v -1.1037 -1.1037 l -11.869,-9.9582 -11.869,-9.9583 -13.131,-9.9184 -13.131,-9.9183 -14,-9.347 -14,-9.347 -14,-8.4178 -14,-8.4178 -22.0001,-11.046 -22.00003,-11.04599 -18,-7.3129 -18,-7.3129 -17.84426,-6.1105 -17.84429,-6.1104 -17.48905,-4.632 -17.48905,-4.6319 -13.14677,-2.6969 -13.14677,-2.6968 h -1.5199 -1.51989 l 0.27914,19.6687 0.27914,19.6688 1.39077,113.99989 1.39078,114 0.83687,25.5739 0.83686,25.5739 5.49322,-3.4601 5.49322,-3.4601 z"
       id="path3" />
  </g>
</svg>
